<?xml version="1.0" encoding="utf-8"?>
<!-- Generator: Adobe Illustrator 19.0.0, SVG Export Plug-In . SVG Version: 6.00 Build 0)  -->
<svg version="1.1" id="Layer_1" xmlns="http://www.w3.org/2000/svg" xmlns:xlink="http://www.w3.org/1999/xlink" x="0px" y="0px"
	 viewBox="0 0 605.1 106.1" style="enable-background:new 0 0 605.1 106.1;" xml:space="preserve">
<style type="text/css">
	.st0{fill:#4A5960;}
</style>
<g>
	<g>
		<path class="st0" d="M207.6,24.9c0-4-3.1-7.1-7.1-7.1h-11c-4,0-7.1,3.1-7.1,7.1v56.3c0,4,3.1,7.1,7.1,7.1h11c4,0,7.1-3.1,7.1-7.1
			v-7.6h20.6V84c0,11.2-10.2,22.1-20.6,22.1h-25.2c-10.5,0-20.6-10.9-20.6-22.1V22.1C161.8,10.9,172,0,182.4,0h25.2
			c10.5,0,20.6,10.9,20.6,22.1v10.5h-20.6V24.9z"/>
		<path class="st0" d="M297.3,88.2v17.8h-38.6c-9.8,0-16.3-8.6-16.3-16.7V0.3H263v84.3c0,2.1,1.6,3.7,3.7,3.7H297.3z"/>
		<path class="st0" d="M308.6,22.3c0-11.2,10.2-22.1,20.6-22.1h25.2c10.5,0,20.6,10.9,20.6,22.1V84c0,11.2-10.2,22.1-20.6,22.1
			h-25.2c-10.5,0-20.6-10.9-20.6-22.1V22.3z M354.4,25.2c0-4-3.1-7.1-7.1-7.1h-11c-4,0-7.1,3.1-7.1,7.1v56c0,4,3.1,7.1,7.1,7.1h11
			c4,0,7.1-3.1,7.1-7.1V25.2z"/>
		<path class="st0" d="M389.2,73.7h20.6V81c0,4.1,2.8,7.2,6.9,7.2h11.2c4,0,7.1-3.1,7.1-7.4v-2.3c0-20.5-45.8-15.8-45.8-47v-9.6
			c0-11.2,10.2-21.8,20.6-21.8H435c10.5,0,20.6,10.9,20.6,22.1v9.5H435v-6.6c0-4-3.1-7.1-7.1-7.1h-11.2c-4,0-7.1,3.1-7.1,7.1V27
			c0,19,46,13.3,46,46.5V84c0,11.2-10.2,22.1-20.6,22.1h-25.2c-10.5,0-20.6-10.9-20.6-22.1V73.7z"/>
		<path class="st0" d="M533.3,18.1h-22.9v88h-20.6v-88h-22.9V0.3h66.5V18.1z"/>
		<path class="st0" d="M565.2,44.3h33.9v17.5h-33.9v26.9h39.9v17.4h-60.4V17.8c0-9.9,7.8-17.8,17.7-17.8h42.7v17.5H569
			c-2,0-3.5,1.6-3.5,3.5L565.2,44.3z"/>
	</g>
	<g>
		<path class="st0" d="M113.7,21.2H6.4c-3.5,0-6.4-2.9-6.4-6.4V6.4C0,2.9,2.9,0,6.4,0h107.4c3.5,0,6.4,2.9,6.4,6.4v8.5
			C120.1,18.4,117.2,21.2,113.7,21.2z"/>
		<path class="st0" d="M113.7,106.1H6.4c-3.5,0-6.4-2.9-6.4-6.4v-8.5c0-3.5,2.9-6.4,6.4-6.4h107.4c3.5,0,6.4,2.9,6.4,6.4v8.5
			C120.1,103.2,117.2,106.1,113.7,106.1z"/>
		<rect x="48" y="43" class="st0" width="24" height="21.2"/>
		<path class="st0" d="M113.7,43H84.9v21.2h28.7c3.6,0,6.5-2.9,6.5-6.5v-8.3C120.1,45.9,117.2,43,113.7,43z"/>
		<path class="st0" d="M6.5,64.2h28.7l0-21.2H6.4C2.9,43,0,45.9,0,49.4l0,8.3C0,61.3,2.9,64.2,6.5,64.2z"/>
	</g>
</g>
</svg>
