<svg xmlns="http://www.w3.org/2000/svg" viewBox="0 0 100 21.12"><g data-name="Layer 2"><path d="M7.89 5.2h6l-.92 3.54a2.29 2.29 0 01-.79 1.19 2.15 2.15 0 01-1.35.45H8a2.67 2.67 0 00-1.68.55 3 3 0 00-1 1.51 2.83 2.83 0 00.48 2.47 2.71 2.71 0 001 .78A2.85 2.85 0 008 16h1.72a1 1 0 01.78.38.94.94 0 01.17.86l-1.06 3.9H7.76a7.44 7.44 0 01-3.5-.83 7.79 7.79 0 01-4-8.94L.37 11a7.54 7.54 0 011.07-2.38A7.61 7.61 0 013.15 6.8a8.22 8.22 0 012.21-1.18 7.67 7.67 0 012.53-.42zm3.01 15.92l5.21-19.48A2.19 2.19 0 0116.9.45 2.13 2.13 0 0118.25 0h5.51a7.5 7.5 0 013.5.83 7.85 7.85 0 014.11 5.34 7.34 7.34 0 01-.11 3.6l-.1.4a7.81 7.81 0 01-1.06 2.33 7.47 7.47 0 01-1.7 1.84A7.74 7.74 0 0123.66 16h-4.78l.95-3.57a2.23 2.23 0 01.79-1.16 2.15 2.15 0 011.38-.5h1.5a2.78 2.78 0 002.69-2.08 2.5 2.5 0 000-1.3 2.76 2.76 0 00-1.46-1.91 2.73 2.73 0 00-1.27-.3h-3l-3.77 14.33a2.27 2.27 0 01-.79 1.17 2.11 2.11 0 01-1.33.44zm32.93-10.4l.08-.29a.41.41 0 00-.06-.36.42.42 0 00-.33-.14h-8.59a2.08 2.08 0 01-1-.24 2.14 2.14 0 01-.74-.62 2.21 2.21 0 01-.4-.88 2.25 2.25 0 010-1l.53-2H45a4.25 4.25 0 012 .47 4.65 4.65 0 011.49 1.25 4.35 4.35 0 01.82 1.75 4.45 4.45 0 010 2.05l-2.09 7.76a3.57 3.57 0 01-3.48 2.67h-8.58a4.57 4.57 0 01-3.65-1.78 4.74 4.74 0 01-.84-1.85 4.36 4.36 0 01.05-2.12l.1-.4a4.16 4.16 0 01.63-1.37 4.58 4.58 0 011-1.09 4.58 4.58 0 012.8-1h7.21l-.53 2a2.22 2.22 0 01-.79 1.17 2.16 2.16 0 01-1.32.44h-3.3a.55.55 0 00-.58.45.54.54 0 00.1.52.59.59 0 00.48.22h5.2a.79.79 0 00.5-.16.68.68 0 00.27-.42v-.21zM59.2 5.2a7.55 7.55 0 013.52.8 8 8 0 012.66 2.21 7.86 7.86 0 011.44 3.14A7.67 7.67 0 0166.7 15l-1.32 5a1.48 1.48 0 01-.57.85 1.6 1.6 0 01-1 .31H61a.94.94 0 01-.8-.38 1 1 0 01-.16-.86l1.59-6a2.57 2.57 0 000-1.29 2.93 2.93 0 00-.52-1.13 2.74 2.74 0 00-.95-.79 2.69 2.69 0 00-1.26-.3H56L53.42 20a1.48 1.48 0 01-.57.85 1.64 1.64 0 01-1 .31H49a1 1 0 01-.78-.38.94.94 0 01-.17-.86L52 5.2zm15.55 5.03a1.42 1.42 0 00-.45.65l-1.18 4.49a.71.71 0 00.13.68.73.73 0 00.63.32h10.93L84 19.51a2.27 2.27 0 01-.79 1.17 2.1 2.1 0 01-1.32.44h-10a4.25 4.25 0 01-2-.46 4.29 4.29 0 01-1.49-1.24 4.49 4.49 0 01-.82-1.77 4 4 0 01.07-2l1.61-6a5.88 5.88 0 01.82-1.8 6 6 0 011.3-1.4 6.25 6.25 0 011.69-.91A5.82 5.82 0 0175 5.2h7a4.08 4.08 0 012 .48 4.54 4.54 0 011.5 1.24 4.34 4.34 0 01.8 1.77 4.5 4.5 0 01-.05 2l-.48 1.8a3.43 3.43 0 01-1.28 1.91 3.49 3.49 0 01-2.18.73h-8l.53-2A2.12 2.12 0 0175.7 12a2.15 2.15 0 011.35-.45h3.22a.56.56 0 00.58-.45l.11-.39a.62.62 0 00-.58-.77h-4.91a1.17 1.17 0 00-.72.29zm10.04 10.89l5.3-19.93a1.53 1.53 0 01.57-.86 1.6 1.6 0 011-.33h2.83a1 1 0 01.8.38.92.92 0 01.17.86L91.49 16a6.47 6.47 0 01-.93 2.11A7 7 0 0189 19.69a7.24 7.24 0 01-2 1 6.64 6.64 0 01-2.21.43zM96.37 1.85a1.78 1.78 0 01.24-.9 1.77 1.77 0 01.66-.67 1.85 1.85 0 011.82 0 1.84 1.84 0 01.67.66 1.82 1.82 0 01.24.91 1.88 1.88 0 01-.23.9 1.84 1.84 0 01-.66.67 1.84 1.84 0 01-1.85 0 1.84 1.84 0 01-.66-.67 1.77 1.77 0 01-.23-.9zm.25 0a1.58 1.58 0 00.21.79 1.56 1.56 0 00.57.57 1.58 1.58 0 00.78.21 1.52 1.52 0 00.82-.21 1.56 1.56 0 00.57-.57 1.45 1.45 0 00.22-.79 1.52 1.52 0 00-.21-.78A1.56 1.56 0 0099 .5a1.57 1.57 0 00-1.6 0 1.56 1.56 0 00-.57.57 1.52 1.52 0 00-.21.78zm2.3-.44a.6.6 0 01-.1.35.64.64 0 01-.29.22l.57 1h-.4l-.5-.85h-.33v.85h-.36V.78h.63a.87.87 0 01.59.16.56.56 0 01.19.47zm-1 .37h.26a.45.45 0 00.31-.1.32.32 0 00.12-.26.31.31 0 00-.1-.26.58.58 0 00-.33-.07h-.26z" fill="#000" opacity="1" data-name="Layer 3"/></g></svg>